<svg width="17" height="17" viewBox="0 0 17 17" fill="none" xmlns="http://www.w3.org/2000/svg">
<g clip-path="url(#clip0_2_798)">
<path d="M16.4399 8.16692C16.4399 7.77581 16.3066 7.44692 16.0399 7.18025C15.7733 6.91359 15.4444 6.78025 15.0533 6.78025H2.94661V2.46025C2.94661 2.1047 3.07105 1.80247 3.31994 1.55359C3.49772 1.37581 3.70216 1.26914 3.93327 1.23359C4.16439 1.19803 4.40439 1.21581 4.65328 1.28692C4.33327 1.7847 4.20883 2.33581 4.27994 2.94025C4.35105 3.5447 4.59994 4.06025 5.02661 4.48692L5.13328 4.64692C5.23994 4.71803 5.3555 4.75358 5.47994 4.75358C5.60439 4.75358 5.70216 4.71803 5.77327 4.64692L8.81328 1.60692C8.91994 1.50025 8.97328 1.3847 8.97328 1.26025C8.97328 1.13581 8.91994 1.02025 8.81328 0.913586L8.70661 0.806918C8.24439 0.344696 7.68439 0.0958071 7.02661 0.0602512C6.36883 0.0246964 5.79105 0.202474 5.29327 0.593585C4.86661 0.344696 4.40439 0.246919 3.90661 0.300252C3.40883 0.353585 2.98216 0.55803 2.62661 0.913586C2.19994 1.34025 1.98661 1.85581 1.98661 2.46025V6.78025H1.82661C1.4355 6.78025 1.10661 6.91359 0.839941 7.18025C0.573275 7.44692 0.439941 7.77581 0.439941 8.16692C0.439941 8.48692 0.52883 8.76247 0.706608 8.99359C0.884386 9.2247 1.09772 9.39359 1.34661 9.50025V10.5136C1.34661 11.3669 1.57772 12.1491 2.03994 12.8603C2.50216 13.5714 3.08883 14.1225 3.79994 14.5136L3.37327 15.3669C3.30216 15.5091 3.29327 15.6336 3.34661 15.7403C3.39994 15.8469 3.47994 15.9358 3.58661 16.0069C3.69327 16.078 3.80883 16.0869 3.93327 16.0336C4.05772 15.9803 4.1555 15.9003 4.22661 15.7936L4.70661 14.8336C5.06216 14.9047 5.4355 14.9403 5.82661 14.9403H11.0533C11.4444 14.9403 11.8177 14.9047 12.1733 14.8336L12.6533 15.7936C12.7244 15.9003 12.8222 15.9803 12.9466 16.0336C13.0711 16.0869 13.1866 16.078 13.2933 16.0069C13.3999 15.9358 13.4799 15.8469 13.5333 15.7403C13.5866 15.6336 13.5777 15.5091 13.5066 15.3669L13.0799 14.5136C13.7911 14.1225 14.3777 13.5714 14.8399 12.8603C15.3022 12.1491 15.5333 11.3669 15.5333 10.5136V9.50025C15.7822 9.39359 15.9955 9.2247 16.1733 8.99359C16.3511 8.76247 16.4399 8.48692 16.4399 8.16692ZM7.79994 1.28692L5.50661 3.63358C5.25772 3.27803 5.15105 2.9047 5.18661 2.51359C5.22216 2.12247 5.38216 1.7847 5.66661 1.50025C5.95105 1.21581 6.29772 1.05581 6.70661 1.02025C7.1155 0.984696 7.47994 1.07359 7.79994 1.28692ZM1.82661 7.74025H15.0533C15.1599 7.74025 15.2577 7.7847 15.3466 7.87359C15.4355 7.96247 15.4799 8.06914 15.4799 8.19359C15.4799 8.31803 15.4355 8.4247 15.3466 8.51359C15.2577 8.60247 15.1599 8.64692 15.0533 8.64692H1.82661C1.71994 8.64692 1.62216 8.60247 1.53327 8.51359C1.44439 8.4247 1.39994 8.31803 1.39994 8.19359C1.39994 8.06914 1.44439 7.96247 1.53327 7.87359C1.62216 7.7847 1.71994 7.74025 1.82661 7.74025ZM14.5733 10.5136C14.5733 11.1536 14.4133 11.7403 14.0933 12.2736C13.7733 12.8069 13.3466 13.2336 12.8133 13.5536C12.2799 13.8736 11.6933 14.0336 11.0533 14.0336H5.82661C5.18661 14.0336 4.59994 13.8736 4.06661 13.5536C3.53327 13.2336 3.10661 12.8069 2.78661 12.2736C2.46661 11.7403 2.30661 11.1536 2.30661 10.5136V9.60692H14.5733V10.5136ZM7.21327 4.80692C7.21327 4.94914 7.25772 5.0647 7.34661 5.15359C7.4355 5.24247 7.54216 5.28692 7.66661 5.28692C7.79105 5.28692 7.89772 5.24247 7.98661 5.15359C8.0755 5.0647 8.11994 4.94914 8.11994 4.80692C8.11994 4.6647 8.0755 4.54914 7.98661 4.46025C7.89772 4.37136 7.79105 4.32692 7.66661 4.32692C7.54216 4.32692 7.4355 4.37136 7.34661 4.46025C7.25772 4.54914 7.21327 4.6647 7.21327 4.80692ZM8.54661 3.47359C8.54661 3.61581 8.59105 3.73136 8.67994 3.82025C8.76883 3.90914 8.8755 3.95359 8.99994 3.95359C9.12439 3.95359 9.23105 3.90914 9.31994 3.82025C9.40883 3.73136 9.45327 3.61581 9.45327 3.47359C9.45327 3.33136 9.40883 3.21581 9.31994 3.12692C9.23105 3.03803 9.12439 2.99359 8.99994 2.99359C8.8755 2.99359 8.76883 3.03803 8.67994 3.12692C8.59105 3.21581 8.54661 3.33136 8.54661 3.47359ZM8.86661 5.12692C8.86661 5.23359 8.91105 5.34025 8.99994 5.44692C9.08883 5.55359 9.1955 5.60692 9.31994 5.60692C9.44439 5.60692 9.55105 5.55359 9.63994 5.44692C9.72883 5.34025 9.77328 5.2247 9.77328 5.10025C9.77328 4.97581 9.72883 4.86914 9.63994 4.78025C9.55105 4.69136 9.44439 4.64692 9.31994 4.64692C9.1955 4.64692 9.08883 4.69136 8.99994 4.78025C8.91105 4.86914 8.86661 4.9847 8.86661 5.12692Z" fill="white"/>
</g>
<defs>
<clipPath id="clip0_2_798">
<rect width="16" height="16" fill="white" transform="matrix(1 0 0 -1 0.439941 16.0601)"/>
</clipPath>
</defs>
</svg>
