<svg width="17" height="17" viewBox="0 0 17 17" fill="none" xmlns="http://www.w3.org/2000/svg">
<g clip-path="url(#clip0_2_794)">
<path d="M14.5066 5.07322H7.46665C7.11109 5.07322 6.77331 5.17989 6.45331 5.39322C6.3822 4.85989 6.15998 4.42433 5.78665 4.08656C5.41331 3.74878 4.97776 3.57989 4.47998 3.57989C4.08887 3.57989 3.73331 3.66878 3.41331 3.84656V3.04656C3.41331 2.90433 3.36887 2.78878 3.27998 2.69989C3.19109 2.611 3.07554 2.56656 2.93331 2.56656H0.95998C0.817758 2.56656 0.702203 2.611 0.613314 2.69989C0.524425 2.78878 0.47998 2.90433 0.47998 3.04656V13.0732C0.47998 13.2154 0.524425 13.331 0.613314 13.4199C0.702203 13.5088 0.817758 13.5532 0.95998 13.5532H2.93331C3.07554 13.5532 3.19109 13.5088 3.27998 13.4199C3.36887 13.331 3.41331 13.2154 3.41331 13.0732V11.5266H13.5466V13.0732C13.5466 13.2154 13.5911 13.331 13.68 13.4199C13.7689 13.5088 13.8844 13.5532 14.0266 13.5532H16C16.1422 13.5532 16.2578 13.5088 16.3466 13.4199C16.4355 13.331 16.48 13.2154 16.48 13.0732V7.04656C16.48 6.51322 16.2844 6.051 15.8933 5.65989C15.5022 5.26878 15.04 5.07322 14.5066 5.07322ZM4.47998 4.48656C4.76442 4.48656 5.00443 4.59322 5.19998 4.80656C5.39554 5.01989 5.49331 5.26878 5.49331 5.55322C5.49331 5.83767 5.39554 6.07767 5.19998 6.27322C5.00443 6.46878 4.76442 6.56656 4.47998 6.56656C4.19554 6.56656 3.94665 6.46878 3.73331 6.27322C3.51998 6.07767 3.41331 5.83767 3.41331 5.55322C3.41331 5.26878 3.51998 5.01989 3.73331 4.80656C3.94665 4.59322 4.19554 4.48656 4.47998 4.48656ZM3.41331 7.20656C3.73331 7.41989 4.07998 7.52656 4.45331 7.52656C4.82665 7.52656 5.17331 7.41989 5.49331 7.20656V8.59322H3.41331V7.20656ZM15.52 12.5932H14.4533V11.0466C14.4533 10.9399 14.4089 10.8421 14.32 10.7532C14.2311 10.6643 14.1333 10.6199 14.0266 10.6199H2.93331C2.82665 10.6199 2.72887 10.6643 2.63998 10.7532C2.55109 10.8421 2.50665 10.9399 2.50665 11.0466V12.5932H1.43998V3.52656H2.50665V9.07322C2.50665 9.17989 2.55109 9.28656 2.63998 9.39322C2.72887 9.49989 2.82665 9.55322 2.93331 9.55322H15.52V12.5932ZM15.52 8.59322H6.45331V7.04656C6.45331 6.76211 6.55109 6.52211 6.74665 6.32656C6.9422 6.131 7.1822 6.03322 7.46665 6.03322H14.5066C14.7911 6.03322 15.0311 6.131 15.2266 6.32656C15.4222 6.52211 15.52 6.76211 15.52 7.04656V8.59322Z" fill="white"/>
</g>
<defs>
<clipPath id="clip0_2_794">
<rect width="16" height="16" fill="white" transform="matrix(1 0 0 -1 0.47998 16.0601)"/>
</clipPath>
</defs>
</svg>
