<svg width="17" height="17" viewBox="0 0 17 17" fill="none" xmlns="http://www.w3.org/2000/svg">
<g clip-path="url(#clip0_2_801)">
<path d="M13.0833 15.3999H11.1633C11.0567 15.3999 10.95 15.4532 10.8433 15.5599C10.7367 15.6665 10.6833 15.7821 10.6833 15.9065C10.6833 16.031 10.7367 16.1376 10.8433 16.2265C10.95 16.3154 11.0567 16.3599 11.1633 16.3599H13.0833C13.2256 16.3599 13.3411 16.3154 13.43 16.2265C13.5189 16.1376 13.5633 16.031 13.5633 15.9065C13.5633 15.7821 13.5189 15.6665 13.43 15.5599C13.3411 15.4532 13.2256 15.3999 13.0833 15.3999ZM9.29668 15.3999H7.43001C7.28779 15.3999 7.17224 15.4532 7.08335 15.5599C6.99446 15.6665 6.95001 15.7821 6.95001 15.9065C6.95001 16.031 6.99446 16.1376 7.08335 16.2265C7.17224 16.3154 7.28779 16.3599 7.43001 16.3599H9.29668C9.4389 16.3599 9.55446 16.3154 9.64335 16.2265C9.73224 16.1376 9.77668 16.031 9.77668 15.9065C9.77668 15.7821 9.73224 15.6665 9.64335 15.5599C9.55446 15.4532 9.4389 15.3999 9.29668 15.3999ZM15.91 6.91986C15.8033 6.91986 15.6967 6.96431 15.59 7.0532C15.4833 7.14209 15.43 7.25764 15.43 7.39986V9.26653C15.43 9.40875 15.4833 9.52431 15.59 9.6132C15.6967 9.70209 15.8122 9.74653 15.9367 9.74653C16.0611 9.74653 16.1678 9.70209 16.2567 9.6132C16.3456 9.52431 16.39 9.40875 16.39 9.26653V7.39986C16.39 7.25764 16.3456 7.14209 16.2567 7.0532C16.1678 6.96431 16.0522 6.91986 15.91 6.91986ZM15.91 10.6532C15.8033 10.6532 15.6967 10.7065 15.59 10.8132C15.4833 10.9199 15.43 11.0265 15.43 11.1332V12.9999C15.43 13.1421 15.4833 13.2576 15.59 13.3465C15.6967 13.4354 15.8122 13.4799 15.9367 13.4799C16.0611 13.4799 16.1678 13.4354 16.2567 13.3465C16.3456 13.2576 16.39 13.1421 16.39 12.9999V11.1332C16.39 11.0265 16.3456 10.9199 16.2567 10.8132C16.1678 10.7065 16.0522 10.6532 15.91 10.6532ZM5.56335 15.3999H5.08335V14.9732C5.08335 14.831 5.0389 14.7154 4.95001 14.6265C4.86113 14.5376 4.74557 14.4932 4.60335 14.4932C4.46113 14.4932 4.34557 14.5376 4.25668 14.6265C4.16779 14.7154 4.12335 14.831 4.12335 14.9732V15.8799C4.12335 16.0221 4.16779 16.1376 4.25668 16.2265C4.34557 16.3154 4.46113 16.3599 4.60335 16.3599H5.56335C5.67001 16.3599 5.76779 16.3154 5.85668 16.2265C5.94557 16.1376 5.99001 16.031 5.99001 15.9065C5.99001 15.7821 5.94557 15.6665 5.85668 15.5599C5.76779 15.4532 5.67001 15.3999 5.56335 15.3999ZM15.91 4.0932H15.0033C14.8611 4.0932 14.7456 4.13764 14.6567 4.22653C14.5678 4.31542 14.5233 4.43097 14.5233 4.5732C14.5233 4.71542 14.5678 4.83097 14.6567 4.91986C14.7456 5.00875 14.8611 5.0532 15.0033 5.0532H15.43V5.5332C15.43 5.63986 15.4833 5.73764 15.59 5.82653C15.6967 5.91542 15.8122 5.95986 15.9367 5.95986C16.0611 5.95986 16.1678 5.91542 16.2567 5.82653C16.3456 5.73764 16.39 5.63986 16.39 5.5332V4.5732C16.39 4.43097 16.3456 4.31542 16.2567 4.22653C16.1678 4.13764 16.0522 4.0932 15.91 4.0932ZM15.91 14.4932C15.8033 14.4932 15.6967 14.5376 15.59 14.6265C15.4833 14.7154 15.43 14.831 15.43 14.9732V15.3999H15.0033C14.8611 15.3999 14.7456 15.4532 14.6567 15.5599C14.5678 15.6665 14.5233 15.7821 14.5233 15.9065C14.5233 16.031 14.5678 16.1376 14.6567 16.2265C14.7456 16.3154 14.8611 16.3599 15.0033 16.3599H15.91C16.0522 16.3599 16.1678 16.3154 16.2567 16.2265C16.3456 16.1376 16.39 16.0221 16.39 15.8799V14.9732C16.39 14.831 16.3456 14.7154 16.2567 14.6265C16.1678 14.5376 16.0522 14.4932 15.91 14.4932ZM13.0833 4.0932H12.6033V0.839863C12.6033 0.69764 12.55 0.582085 12.4433 0.493196C12.3367 0.404307 12.23 0.359863 12.1233 0.359863H0.870015C0.727792 0.359863 0.612237 0.404307 0.523348 0.493196C0.434459 0.582085 0.390015 0.69764 0.390015 0.839863V12.0932C0.390015 12.1999 0.434459 12.3065 0.523348 12.4132C0.612237 12.5199 0.727792 12.5732 0.870015 12.5732H4.12335V12.9999C4.12335 13.1421 4.16779 13.2576 4.25668 13.3465C4.34557 13.4354 4.46113 13.4799 4.60335 13.4799C4.74557 13.4799 4.86113 13.4354 4.95001 13.3465C5.0389 13.2576 5.08335 13.1421 5.08335 12.9999V5.0532H13.0833C13.2256 5.0532 13.3411 5.00875 13.43 4.91986C13.5189 4.83097 13.5633 4.71542 13.5633 4.5732C13.5633 4.43097 13.5189 4.31542 13.43 4.22653C13.3411 4.13764 13.2256 4.0932 13.0833 4.0932ZM11.6433 4.0932H4.60335C4.46113 4.0932 4.34557 4.13764 4.25668 4.22653C4.16779 4.31542 4.12335 4.43097 4.12335 4.5732V11.6132H1.35001V1.31986H11.6433V4.0932Z" fill="white"/>
</g>
<defs>
<clipPath id="clip0_2_801">
<rect width="16" height="16" fill="white" transform="matrix(1 0 0 -1 0.390015 16.3599)"/>
</clipPath>
</defs>
</svg>
