<svg width="20" height="21" viewBox="0 0 20 21" fill="none" xmlns="http://www.w3.org/2000/svg">
<g clip-path="url(#clip0_2_789)">
<path d="M16.1334 3.3932C15.2889 2.59319 14.3445 1.97097 13.3 1.52653C12.2556 1.08208 11.1556 0.859861 10 0.859861C8.84449 0.859861 7.73337 1.08208 6.66671 1.52653C5.60004 1.97097 4.66671 2.59319 3.86671 3.3932C3.06671 4.1932 2.44449 5.12653 2.00004 6.1932C1.5556 7.25986 1.33337 8.37097 1.33337 9.52653C1.33337 10.6821 1.5556 11.7821 2.00004 12.8265C2.44449 13.871 3.06671 14.8154 3.86671 15.6599L8.46671 20.2599C8.86671 20.6599 9.36671 20.8599 9.96671 20.8599C10.5667 20.8599 11.0889 20.6599 11.5334 20.2599L16.1334 15.6599C16.9334 14.8154 17.5556 13.871 18 12.8265C18.4445 11.7821 18.6667 10.6821 18.6667 9.52653C18.6667 8.37097 18.4445 7.25986 18 6.1932C17.5556 5.12653 16.9334 4.1932 16.1334 3.3932ZM15.2667 14.7932L10.6667 19.3932C10.4889 19.571 10.2667 19.6599 10 19.6599C9.73337 19.6599 9.48893 19.571 9.26671 19.3932L4.66671 14.7932C3.9556 14.0821 3.42226 13.271 3.06671 12.3599C2.71115 11.4488 2.53337 10.4932 2.53337 9.4932C2.53337 8.4932 2.71115 7.53764 3.06671 6.62653C3.42226 5.71542 3.9556 4.91542 4.66671 4.22653C5.37782 3.53764 6.18893 3.00431 7.10004 2.62653C8.01115 2.24875 8.96671 2.05986 9.96671 2.05986C10.9667 2.05986 11.9223 2.24875 12.8334 2.62653C13.7445 3.00431 14.5556 3.52653 15.2667 4.1932C16.2445 5.17097 16.9 6.30431 17.2334 7.5932C17.5667 8.88208 17.5667 10.171 17.2334 11.4599C16.9 12.7488 16.2445 13.8599 15.2667 14.7932ZM10 6.3932C9.1556 6.3932 8.42226 6.70431 7.80004 7.32653C7.17782 7.94875 6.86671 8.68209 6.86671 9.52653C6.86671 10.371 7.17782 11.0932 7.80004 11.6932C8.42226 12.2932 9.1556 12.5932 10 12.5932C10.8445 12.5932 11.5667 12.2932 12.1667 11.6932C12.7667 11.0932 13.0667 10.371 13.0667 9.52653C13.0667 8.68209 12.7667 7.94875 12.1667 7.32653C11.5667 6.70431 10.8445 6.3932 10 6.3932ZM10 11.4599C9.46671 11.4599 9.01115 11.271 8.63337 10.8932C8.2556 10.5154 8.06671 10.0599 8.06671 9.52653C8.06671 8.9932 8.2556 8.53764 8.63337 8.15986C9.01115 7.78208 9.46671 7.5932 10 7.5932C10.5334 7.5932 10.9889 7.78208 11.3667 8.15986C11.7445 8.53764 11.9334 8.9932 11.9334 9.52653C11.9334 10.0599 11.7445 10.5154 11.3667 10.8932C10.9889 11.271 10.5334 11.4599 10 11.4599Z" fill="white"/>
</g>
<defs>
<clipPath id="clip0_2_789">
<rect width="20" height="20" fill="white" transform="matrix(1 0 0 -1 0 20.8599)"/>
</clipPath>
</defs>
</svg>
